<svg width="25" height="18" viewBox="0 0 25 18" fill="none" xmlns="http://www.w3.org/2000/svg">
<g id="Group 3">
<path id="Rectangle" d="M0 15.9186C0 14.859 0.858989 14 1.91861 14H23.0814C24.141 14 25 14.859 25 15.9186C25 16.9782 24.141 17.8372 23.0814 17.8372H1.91861C0.85899 17.8372 0 16.9782 0 15.9186Z" fill="#033D0A"/>
<rect id="Rectangle_2" width="25" height="3.83721" rx="1.9186" fill="#033D0A"/>
<path id="Rectangle_3" d="M0 8.9186C0 7.85899 0.858989 7 1.91861 7H23.0814C24.141 7 25 7.85899 25 8.9186C25 9.97822 24.141 10.8372 23.0814 10.8372H1.91861C0.85899 10.8372 0 9.97822 0 8.9186Z" fill="#033D0A"/>
</g>
</svg>
