<svg width="21" height="21" viewBox="0 0 21 21" fill="none" xmlns="http://www.w3.org/2000/svg">
<g id="Group 3">
<path id="Rectangle" d="M1.35666 19.0344C0.607396 18.2851 0.607397 17.0703 1.35666 16.3211L16.321 1.35673C17.0703 0.607464 18.2851 0.607462 19.0343 1.35672C19.7836 2.10599 19.7836 3.32078 19.0343 4.07004L4.06998 19.0344C3.32071 19.7837 2.10592 19.7837 1.35666 19.0344Z" fill="#033D0A"/>
<path id="Rectangle_2" d="M1.3566 1.35666C2.10586 0.607396 3.32065 0.607397 4.06992 1.35666L19.0343 16.321C19.7835 17.0703 19.7835 18.2851 19.0343 19.0343C18.285 19.7836 17.0702 19.7836 16.321 19.0343L1.3566 4.06998C0.607338 3.32071 0.607337 2.10592 1.3566 1.35666Z" fill="#033D0A"/>
</g>
</svg>
